<svg width="29" height="31" viewBox="0 0 29 31" fill="none" xmlns="http://www.w3.org/2000/svg">
<path d="M10.2482 30.2726L8.82782 7.90013" stroke="black" stroke-width="0.5" stroke-linecap="round"/>
<path d="M1.74856 30.2726L1 17.3345" stroke="black" stroke-width="0.5" stroke-linecap="round"/>
<path d="M26.0705 30.2726L28.6559 12.63" stroke="black" stroke-width="0.5" stroke-linecap="round"/>
<path d="M18.8088 30.2726L20.4429 7.90013" stroke="black" stroke-width="0.5" stroke-linecap="round"/>
<path d="M8.3072 30.2726L7.50354 16.8836" stroke="black" stroke-width="0.5" stroke-linecap="round"/>
<path d="M20.3766 30.2727L22.1525 12.06" stroke="black" stroke-width="0.5" stroke-linecap="round"/>
<path d="M14.1335 30.2727L14.6417 10.1139" stroke="black" stroke-width="0.5" stroke-linecap="round"/>
<path d="M4.32557 30.2726L3.37415 17.7854" stroke="black" stroke-width="0.5" stroke-linecap="round"/>
<path d="M23.2149 30.2726L26.0706 13.5803" stroke="black" stroke-width="0.5" stroke-linecap="round"/>
<path d="M13.6882 1L8.82782 7.90013" stroke="black" stroke-width="0.5" stroke-linecap="round"/>
<path d="M4.1445 11.1579L1 17.3345" stroke="black" stroke-width="0.5" stroke-linecap="round"/>
<path d="M25.3731 8.72628L28.6559 12.63" stroke="black" stroke-width="0.5" stroke-linecap="round"/>
<path d="M13.6882 0.999999L20.4429 7.90013" stroke="black" stroke-width="0.5" stroke-linecap="round"/>
<path d="M4.14449 11.1579L7.50348 16.8836" stroke="black" stroke-width="0.5" stroke-linecap="round"/>
<path d="M25.3732 8.72629L22.1525 12.06" stroke="black" stroke-width="0.5" stroke-linecap="round"/>
<path d="M13.6882 1L14.6417 10.1139" stroke="black" stroke-width="0.5" stroke-linecap="round"/>
<path d="M4.14456 11.1579L3.37415 17.7854" stroke="black" stroke-width="0.5" stroke-linecap="round"/>
<path d="M25.3732 8.72628L26.0706 13.5803" stroke="black" stroke-width="0.5" stroke-linecap="round"/>
<path d="M8.82778 7.90013L14.6417 10.1139" stroke="black" stroke-width="0.5" stroke-linecap="round"/>
<path d="M1.00005 17.3345L3.37415 17.7854" stroke="black" stroke-width="0.5" stroke-linecap="round"/>
<path d="M28.656 12.63L26.0706 13.5803" stroke="black" stroke-width="0.5" stroke-linecap="round"/>
<path d="M14.6417 10.1139L20.2077 7.90012" stroke="black" stroke-width="0.5" stroke-linecap="round"/>
<path d="M3.37408 17.7855L7.50348 16.8836" stroke="black" stroke-width="0.5" stroke-linecap="round"/>
<path d="M26.0706 13.5803L22.1525 12.06" stroke="black" stroke-width="0.5" stroke-linecap="round"/>
</svg>
